#!OML:ASF E:\Style6\Style6.ASF
:FULLY-SPECIFIED
:DEGREES
3578
root 0.315655 17.7638 0.00544751 14.6597 1.67083 0.0795394
lowerback 5.78725 -1.71538 1.18591
upperback -7.57794 -1.87275 3.22744
thorax -11.318 -0.837231 3.11102
lowerneck -9.06914 -3.51359 2.01097
upperneck 19.3338 -3.36328 -9.48127
head 7.1891 -2.3277 -3.72657
rclavicle 2.52705e-014 -3.18055e-015
rhumerus -39.0056 -16.9322 -29.3289
rradius 62.743
rwrist 31.6704
rhand -27.2962 11.9107
rfingers 7.12502
rthumb -0.706215 -18.0679
lclavicle 2.52705e-014 -3.18055e-015
lhumerus -46.5099 16.7666 33.1827
lradius 55.4622
lwrist -6.42894
lhand -29.2053 23.5057
lfingers 7.12502
lthumb -2.54996 53.4703
rfemur -31.6205 -7.4486 19.7974
rtibia 32.4059
rfoot -9.29025 0.870455
rtoes -14.9566
lfemur -30.5787 2.41688 -18.071
ltibia 32.9397
lfoot -11.7288 -1.09817
ltoes -21.1017
3579
root 0.315647 17.7714 0.00686577 14.6803 1.64957 0.144748
lowerback 5.74021 -1.72615 1.11889
upperback -7.58332 -1.89716 3.21922
thorax -11.2921 -0.844305 3.14139
lowerneck -9.04152 -3.54097 2.0256
upperneck 19.2039 -3.40313 -9.52737
head 7.13809 -2.3473 -3.74187
rclavicle 1.44864e-014 -2.38542e-015
rhumerus -38.9968 -16.8955 -29.3668
rradius 62.7499
rwrist 31.7134
rhand -27.208 11.9665
rfingers 7.12502
rthumb -0.621012 -18.0123
lclavicle 1.44864e-014 -2.38542e-015
lhumerus -46.5354 16.7427 33.1891
lradius 55.4446
lwrist -6.36778
lhand -29.1608 23.4309
lfingers 7.12502
lthumb -2.50704 53.3959
rfemur -31.5173 -7.31308 19.688
rtibia 32.2004
rfoot -9.21473 0.738452
rtoes -14.8938
lfemur -30.4708 2.23967 -18.1085
ltibia 32.7413
lfoot -11.6086 -0.919775
ltoes -21.3274
3580
root 0.316719 17.7796 0.0100295 14.679 1.62331 0.145573
lowerback 5.68187 -1.74573 1.11961
upperback -7.57704 -1.92364 3.24015
thorax -11.2477 -0.856865 3.16458
lowerneck -8.99153 -3.55295 2.0237
upperneck 19.0278 -3.42401 -9.56237
head 7.07015 -2.35679 -3.747
rclavicle 2.64384e-014 -2.46493e-014
rhumerus -38.9533 -16.8019 -29.4158
rradius 62.7732
rwrist 31.7346
rhand -27.1898 11.9232
rfingers 7.12502
rthumb -0.603409 -18.0557
lclavicle 2.64384e-014 -2.46493e-014
lhumerus -46.6334 16.7597 33.1694
lradius 55.478
lwrist -6.2994
lhand -29.2258 23.2812
lfingers 7.12502
lthumb -2.56978 53.2454
rfemur -31.3915 -7.21775 19.6546
rtibia 32.0084
rfoot -9.18789 0.624724
rtoes -15.6694
lfemur -30.3232 2.15481 -18.102
ltibia 32.5168
lfoot -11.5153 -0.805487
ltoes -21.5518
3581
root 0.317382 17.7878 0.0142119 14.6538 1.59098 0.15804
lowerback 5.64144 -1.75425 1.12126
upperback -7.55945 -1.93723 3.23559
thorax -11.2026 -0.864587 3.15791
lowerneck -8.89505 -3.59328 2.04122
upperneck 18.7891 -3.49198 -9.59445
head 6.97028 -2.38519 -3.75442
rclavicle 8.07563e-015 1.35174e-014
rhumerus -38.952 -16.7181 -29.4737
rradius 62.7923
rwrist 31.6929
rhand -27.2319 11.898
rfingers 7.12502
rthumb -0.644054 -18.0808
lclavicle 8.07563e-015 1.35174e-014
lhumerus -46.684 16.7711 33.1684
lradius 55.4974
lwrist -6.42221
lhand -29.3261 23.3552
lfingers 7.12502
lthumb -2.66661 53.3182
rfemur -31.2355 -7.10316 19.5966
rtibia 31.838
rfoot -9.16126 0.618236
rtoes -14.7128
lfemur -30.1257 2.06609 -18.0988
ltibia 32.2813
lfoot -11.4356 -0.715104
ltoes -21.5702
3582
root 0.31658 17.7957 0.0177106 14.6232 1.53651 0.237225
lowerback 5.66628 -1.75619 0.999826
upperback -7.56739 -1.95263 3.23564
thorax -11.2216 -0.861633 3.22995
lowerneck -8.77053 -3.63389 1.98876
upperneck 18.616 -3.54925 -9.60359
head 6.88975 -2.41185 -3.7433
rclavicle 1.26725e-015 -1.82882e-014
rhumerus -38.9827 -16.6395 -29.4906
rradius 62.8444
rwrist 31.6981
rhand -27.2083 11.9452
rfingers 7.12502
rthumb -0.621275 -18.0336
lclavicle 1.26725e-015 -1.82882e-014
lhumerus -46.7646 16.7765 33.2181
lradius 55.5183
lwrist -6.62362
lhand -29.4702 23.9219
lfingers 7.12502
lthumb -2.80578 53.8832
rfemur -31.0907 -6.92226 19.4599
rtibia 31.678
rfoot -9.08886 0.438138
rtoes -15.5344
lfemur -29.9148 1.92412 -18.1596
ltibia 32.0455
lfoot -11.3277 -0.518121
ltoes -22.0474
3583
root 0.314361 17.8014 0.018378 14.6081 1.47462 0.370571
lowerback 5.7453 -1.77239 0.80242
upperback -7.60119 -1.99381 3.23764
thorax -11.2991 -0.863604 3.35467
lowerneck -8.65387 -3.65945 1.88346
upperneck 18.4996 -3.57776 -9.59171
head 6.83281 -2.42763 -3.71661
rclavicle 1.881e-014 3.18055e-015
rhumerus -38.9515 -16.5336 -29.5279
rradius 62.8745
rwrist 31.7257
rhand -27.1539 11.9854
rfingers 7.12502
rthumb -0.5687 -17.9936
lclavicle 1.881e-014 3.18055e-015
lhumerus -46.8898 16.8031 33.1951
lradius 55.5137
lwrist -6.5748
lhand -29.5153 24.2371
lfingers 7.12502
lthumb -2.84935 54.1978
rfemur -30.9896 -6.73614 19.2708
rtibia 31.5139
rfoot -9.01641 0.237517
rtoes -16.3841
lfemur -29.754 1.75005 -18.2622
ltibia 31.824
lfoot -11.209 -0.381953
ltoes -21.9851
3584
root 0.312543 17.8078 0.0182939 14.5967 1.46344 0.369737
lowerback 5.83163 -1.78625 0.772364
upperback -7.65736 -2.01046 3.25779
thorax -11.4133 -0.865898 3.4032
lowerneck -8.53913 -3.67953 1.87633
upperneck 18.4033 -3.60332 -9.63652
head 6.77896 -2.44046 -3.72522
rclavicle 1.69712e-014 3.18055e-015
rhumerus -38.9853 -16.2657 -29.5535
rradius 62.9482
rwrist 31.5973
rhand -27.1966 11.8389
rfingers 7.12502
rthumb -0.609954 -18.1399
lclavicle 1.69712e-014 3.18055e-015
lhumerus -47.0046 16.794 33.0973
lradius 55.5228
lwrist -6.35371
lhand -29.3833 23.9984
lfingers 7.12502
lthumb -2.72191 53.9607
rfemur -30.8845 -6.56586 19.2366
rtibia 31.3291
rfoot -8.93674 0.0589456
rtoes -16.6536
lfemur -29.6072 1.55131 -18.2043
ltibia 31.6097
lfoot -11.1555 -0.214005
ltoes -21.8153
